PathFileType	4	(X/Y/Z)	/Users/niels/Desktop/University/Third Semester/Perception and Action/Exam/Gymnastics Motion Tracking/Code for Gym Tracking/Analyzed Data/Webcam_Backflip/idid 15_1_trajectory_Sports2D/idid 15_1_trajectory_Sports2D_px_person00.trc
DataRate	CameraRate	NumFrames	NumMarkers	Units	OrigDataRate	OrigDataStartFrame	OrigNumFrames
29.702970297029704	29.702970297029704	10	22	m	29.702970297029704	50	101
Frame#	Time	Hip			RHip			RKnee			RAnkle			RBigToe			RSmallToe			RHeel			LHip			LKnee			LAnkle			LBigToe			LSmallToe			LHeel			Neck			Head			Nose			RShoulder			RElbow			RWrist			LShoulder			LElbow			LWrist		
		X1	Y1	Z1	X2	Y2	Z2	X3	Y3	Z3	X4	Y4	Z4	X5	Y5	Z5	X6	Y6	Z6	X7	Y7	Z7	X8	Y8	Z8	X9	Y9	Z9	X10	Y10	Z10	X11	Y11	Z11	X12	Y12	Z12	X13	Y13	Z13	X14	Y14	Z14	X15	Y15	Z15	X16	Y16	Z16	X17	Y17	Z17	X18	Y18	Z18	X19	Y19	Z19	X20	Y20	Z20	X21	Y21	Z21	X22	Y22	Z22
50	1.6833333333333331	1.0308901915944515	-0.3925355274359806	0.0	1.0173795318178243	-0.3927506240703538	0.0	0.9259243844779624	-0.27459785095019396	0.0	0.9709546848517551	-0.15244253771362878	0.0	0.938670013773969	-0.11317718580288588	0.0	0.9426534490524395	-0.12065409849221356	0.0	0.9819018317844714	-0.13796727689239713	0.0	1.0423756083189342	-0.3851074975449588	0.0	0.9697758087129437	-0.2982262582059248	0.0	0.9837693583122136	-0.15903100359458983	0.0	0.9544998799165988	-0.11569221207021482	0.0	0.9587220235602859	-0.11695698932642151	0.0	0.9959219132416874	-0.1329469294944923	0.0	1.047104724630492	-0.6152319183126057	0.0	1.0939044990422337	-0.6816779484874624	0.0	1.0651155280075988	-0.6741916167328856	0.0	1.0130656318974527	-0.6096858399166801	0.0	1.011757217127917	-0.6968693194481022	0.0	1.0327276755629033	-0.7743806059866565	0.0	1.0663058950534743	-0.6005102458668421	0.0	1.0510515651639547	-0.6624839084147321	0.0	1.0506941329338941	-0.7528019203622962	0.0
51	1.7169999999999999	1.0282411837130767	-0.3968864520759315	0.0	1.0152700552970024	-0.3971276438326578	0.0	0.9437656278583934	-0.256768863694445	0.0	0.9740750701278079	-0.1329909451833667	0.0	0.9437402372103529	-0.09132284457618528	0.0	0.9458185173694597	-0.10108745743498392	0.0	0.9833646969951788	-0.11866310931424047	0.0	1.0386109003812052	-0.3896961084971266	0.0	0.9776028201011462	-0.2789266001344358	0.0	0.9868025996139759	-0.14060315219088804	0.0	0.9618331196028927	-0.10058641149352424	0.0	0.9650100237565449	-0.13591137573356926	0.0	0.9955564616646186	-0.1151299754230055	0.0	1.0468812617383443	-0.6141886325359014	0.0	1.0940604558504605	-0.6781139159117122	0.0	1.0666289031395066	-0.6712531183214278	0.0	1.0143889801277848	-0.6087555911733372	0.0	1.0136477813858724	-0.6978749119730292	0.0	1.0333901804234547	-0.7746598899221558	0.0	1.0653701383873926	-0.6008145729885996	0.0	1.0503549502313076	-0.6632462262937016	0.0	1.050265989466022	-0.7528151082062705	0.0
52	1.7506666666666666	1.025003317775736	-0.4003177424380788	0.0	1.0129718536156673	-0.40079281397998334	0.0	0.9619759443121324	-0.24294820122345687	0.0	0.9767580510903775	-0.11782409073512064	0.0	0.9493858829872639	-0.07496720147679721	0.0	0.9494856609774159	-0.0866116387881129	0.0	0.9838672161466728	-0.10395635401085448	0.0	1.0337473157947317	-0.39338501641727214	0.0	0.9844575822446137	-0.261598145294993	0.0	0.9879351350698814	-0.12609917000107934	0.0	0.9677929368251788	-0.0893807072433692	0.0	0.9704923095534986	-0.18660377513772158	0.0	0.9936882018749248	-0.10155862621742873	0.0	1.04617989290516	-0.6126771612966306	0.0	1.094081739625832	-0.6747219166578421	0.0	1.0693481720838403	-0.6678052947909638	0.0	1.0159132789328744	-0.6063935324677301	0.0	1.0158511883128791	-0.6982198368132099	0.0	1.0339660873300884	-0.7746099319735791	0.0	1.063249196585444	-0.6003584704325826	0.0	1.0495164404184956	-0.665087441795664	0.0	1.0497646275570367	-0.7532657575485325	0.0
53	1.784333333333333	1.0218495592898205	-0.40238799689911026	0.0	1.0110147489212375	-0.403239566542472	0.0	0.9788076943837052	-0.23331384055849352	0.0	0.979885777203237	-0.10754939289822521	0.0	0.9565130046912302	-0.06466325895435214	0.0	0.9547053920087066	-0.07699172885114264	0.0	0.9845951832086656	-0.0941864414872831	0.0	1.029088454703555	-0.39562066290317666	0.0	0.9914085820330305	-0.2478579884130042	0.0	0.9886175471181348	-0.11579589887699263	0.0	0.9731559499683229	-0.0812723654622208	0.0	0.9761222746511392	-0.2674356925008056	0.0	0.9921271474296419	-0.09272714540537043	0.0	1.0451019685680984	-0.611072102953659	0.0	1.0942351479648644	-0.6713740482948041	0.0	1.072686162642817	-0.6644159822299043	0.0	1.0172951249819375	-0.6032521326966165	0.0	1.0179485365874068	-0.6975477810143594	0.0	1.034423962396264	-0.774310397334746	0.0	1.0603780021857103	-0.599118126230878	0.0	1.04871004772587	-0.6674596028442386	0.0	1.0492939691601457	-0.7539999743000344	0.0
54	1.8179999999999998	1.0193682709207712	-0.40303104620641106	0.0	1.0097549468736455	-0.40434196802842803	0.0	0.9928351293238364	-0.22746707380182746	0.0	0.9839551231948341	-0.10158357423220578	0.0	0.9651882191781099	-0.059774859188147844	0.0	0.9618683653104967	-0.07101829978974994	0.0	0.9864123373471992	-0.0885265663097282	0.0	1.0256741433862833	-0.3965142515695594	0.0	0.9987017027656251	-0.23874121132701556	0.0	0.9901347757106863	-0.10941647360294507	0.0	0.9786130419837286	-0.07554968856874389	0.0	0.9824808500678713	-0.36504130304436916	0.0	0.9921994621208338	-0.0880478511919895	0.0	1.0439649657984098	-0.6096300999804402	0.0	1.0947793248334852	-0.6680141946406297	0.0	1.0758636033295026	-0.661670863895457	0.0	1.0183813847352057	-0.6001186659780083	0.0	1.0195409395783317	-0.6960277181833746	0.0	1.0347135923176278	-0.7739033609374786	0.0	1.0575085682262868	-0.5972261214258625	0.0	1.0481084416882522	-0.6698639867825261	0.0	1.0490402430447359	-0.754776370861854	0.0
55	1.8516666666666666	1.0178404085764094	-0.40294287380302357	0.0	1.00936855287718	-0.40462948576469104	0.0	1.0035046017585845	-0.22458539062579783	0.0	0.98902497503888	-0.09868070556036487	0.0	0.9747317677817833	-0.05870554310801806	0.0	0.9706224069388412	-0.06717641529285849	0.0	0.989638645400501	-0.0857232946832267	0.0	1.0239530065217324	-0.39685190360725886	0.0	1.0059480811793702	-0.23453593272938708	0.0	0.9931009833529132	-0.10625461860174489	0.0	0.9844059879138929	-0.07159382419999921	0.0	0.9895289781584605	-0.4620754034714533	0.0	0.9942785257407826	-0.08632733447097792	0.0	1.0430697058049587	-0.6085435936165259	0.0	1.0957780665251398	-0.6649490827106991	0.0	1.0781929504030536	-0.6599310241192514	0.0	1.0191933484616793	-0.5976830982073623	0.0	1.0204599855667429	-0.6942050296695634	0.0	1.0348033438651425	-0.7735145328884431	0.0	1.0552978836816234	-0.5950979678906673	0.0	1.047869841588517	-0.6719355490977403	0.0	1.0490966653486138	-0.7553175406494432	0.0
56	1.885333333333333	1.0172203738010928	-0.40319324815381624	0.0	1.0098541535627636	-0.40493443826897074	0.0	1.0111259136305666	-0.22372949080029186	0.0	0.9948806275288113	-0.0976374192231342	0.0	0.9841760750087024	-0.059439085401931234	0.0	0.9801865186938205	-0.06432123113322742	0.0	0.9941308232479115	-0.08472147676950816	0.0	1.0237610453892387	-0.3974751700644593	0.0	1.0127032204385	-0.23470456519419852	0.0	0.9974400567893602	-0.10534610155017068	0.0	0.9903498516955325	-0.06892644056218888	0.0	0.9968347263079866	-0.5430687293193928	0.0	0.9979653884248543	-0.08634029333199128	0.0	1.0425474852372731	-0.6079662230258472	0.0	1.0970350323739912	-0.6626493873513529	0.0	1.07935098374679	-0.6591472703676158	0.0	1.0198614393201202	-0.5963583537900723	0.0	1.020808289436399	-0.6926644741329263	0.0	1.0347366646149418	-0.7732254721962101	0.0	1.053972630169913	-0.593312057996081	0.0	1.048031179149673	-0.6735091624541188	0.0	1.0493519637874145	-0.7554631392200347	0.0
57	1.9189999999999998	1.0172880804185114	-0.4041336613712219	0.0	1.0109785830478537	-0.40561155574315355	0.0	1.016392732822365	-0.22401941555455382	0.0	1.0012309026758233	-0.09756242545112166	0.0	0.9926805957280235	-0.060267385354759194	0.0	0.989684581427539	-0.06190178738125738	0.0	0.9995439819324933	-0.08474933094727853	0.0	1.02456969936801	-0.3985413743191878	0.0	1.0186578152962908	-0.23787679624739794	0.0	1.0026873839088426	-0.10563634959098205	0.0	0.9961312156117459	-0.0673779527411698	0.0	1.0038220672513367	-0.5931216433724433	0.0	1.0026010889960502	-0.0870952405097175	0.0	1.0423359300662562	-0.6078821784695873	0.0	1.0983035315409018	-0.6612315284674314	0.0	1.079439587303591	-0.6589178791705921	0.0	1.020501621547222	-0.5962369704646195	0.0	1.0207940366425345	-0.6917692630469179	0.0	1.0346193738119092	-0.7730940626005912	0.0	1.0533516311949882	-0.5923188892189627	0.0	1.0484276875831706	-0.6746014530443117	0.0	1.0496004276078132	-0.755249667607553	0.0
58	1.9526666666666666	1.0177787232940656	-0.40509301585870344	0.0	1.0123404896499246	-0.4063257820280393	0.0	1.0199717479301158	-0.22475037065343262	0.0	1.0077986657463105	-0.09788342472591251	0.0	0.9997514452333436	-0.06037424837973157	0.0	0.998398036385154	-0.059827257042415996	0.0	1.0055147625550411	-0.08523211959388775	0.0	1.025770464480965	-0.39955345221790156	0.0	1.0235950860057896	-0.24223455323922735	0.0	1.0083120903010072	-0.10628310252009612	0.0	1.0014974403032284	-0.06688405265903902	0.0	1.0099105695808253	-0.6069905685738743	0.0	1.0076445818063982	-0.08789411748350472	0.0	1.042224624921268	-0.6080664849488278	0.0	1.0994380040578489	-0.6604001567116	0.0	1.0787939435726948	-0.6587701064979105	0.0	1.0211135450765843	-0.5971494186870389	0.0	1.0206007989953796	-0.6915987283599704	0.0	1.0345452934550656	-0.7731720105276358	0.0	1.0530682883330567	-0.5922436770086329	0.0	1.0487283653888952	-0.6753402381384086	0.0	1.049717359480299	-0.7548543479633727	0.0
59	1.9863333333333333	1.0184284757419788	-0.4052323905791423	0.0	1.0135738220596928	-0.4065925757850667	0.0	1.0223903851342326	-0.22547637584056812	0.0	1.0142811261447067	-0.09829954225215767	0.0	1.0052243439510233	-0.059706996396791896	0.0	1.0058740048717638	-0.05815941040405442	0.0	1.0116419287761753	-0.08577964097066472	0.0	1.0268736839410233	-0.3999998967339185	0.0	1.0274127555180783	-0.24612570633086192	0.0	1.0138684417501902	-0.10679632863668855	0.0	1.006280244278902	-0.06698196383570923	0.0	1.014669828641054	-0.5955664801323215	0.0	1.0127545253417995	-0.0883548318376077	0.0	1.0419922527535816	-0.6082848756878331	0.0	1.100332107530807	-0.6598810533941564	0.0	1.0777581991792986	-0.6584504132685206	0.0	1.0215780091422344	-0.5987402723151966	0.0	1.0203822326199563	-0.6919967314340306	0.0	1.0345384391042507	-0.7734844996510658	0.0	1.0527919487292492	-0.5929126327435571	0.0	1.0486029369774315	-0.675915472173916	0.0	1.0496810046531886	-0.7545299850045696	0.0
